# xmcd
#
# Track frame offsets: 
#        150
#        14887
#        31115
#        44540
#        60039
#        83183
#        111317
#        130161
#        142372
#        168987
#        187193
#        204554
#        219351
#        244907
#        267187
#
# Disc length: 3812 seconds
#
# Revision: 0
# Processed by: cddbd v1.5.2PL0 Copyright (c) Steve Scherf et al.
# Submitted via: ExactAudioCopy v1.0b4
#
DISCID=df0ee20f
DTITLE=Bernd Klinzmann,Heiko Bandasch, Wolfgang Blut, Hans-Joachim Pra
DTITLE=st und Big Al und Nik Müller-Lenhartz - Blue Staned Session 2
DYEAR=2005
DGENRE=Blues
TTITLE0=Rocklng All Over The World
TTITLE1=Further On Up The Boad
TTITLE2=Keep On Running
TTITLE3=Hideaway
TTITLE4=Sugar Bowl
TTITLE5=Have You Ever Loved A Woman
TTITLE6=Boom Boom
TTITLE7=Peter Gunn
TTITLE8=Comln' Downstairs From M Baby
TTITLE9=Blues After Mldol ht
TTITLE10=Black Ma lc Woman
TTITLE11=Brown Sugar
TTITLE12=Standlo'On Shaky Ground
TTITLE13=Smoke On The Water
TTITLE14=Gimme Some Lovin'
EXTD=
EXTT0=
EXTT1=
EXTT2=
EXTT3=
EXTT4=
EXTT5=
EXTT6=
EXTT7=
EXTT8=
EXTT9=
EXTT10=
EXTT11=
EXTT12=
EXTT13=
EXTT14=
PLAYORDER=
